# xmcd
#
# Track frame offsets: 
#        150
#        15022
#        32330
#        48702
#        67085
#        83115
#        99333
#        115752
#        134104
#        150889
#        170087
#        185940
#        204047
#        222621
#        238649
#
# Disc length: 3520 seconds
#
# Revision: 0
# Processed by: cddbd v1.5.2PL0 Copyright (c) Steve Scherf et al.
# Submitted via: ExactAudioCopyFreeDBPlugin 1.0
#
DISCID=c90dbe0f
DTITLE=Happoradio - Klassikot
DYEAR=2016
DGENRE=Pop
TTITLE0=Pois Kalliosta
TTITLE1=Che Guevara
TTITLE2=Hirsipuu
TTITLE3=Puhu äänellä jonka kuulen
TTITLE4=Rakkaus
TTITLE5=Pelastaja
TTITLE6=Hiljaa niin kuin kuolleet
TTITLE7=Anna anteeksi
TTITLE8=Ihmisenpyörä
TTITLE9=Ahmat tulevat
TTITLE10=Unelmia ja toimistohommia
TTITLE11=Olette kauniita
TTITLE12=Sinä and hän
TTITLE13=Tavikset
TTITLE14=Itä-Suomessa tuulee
EXTD=
EXTT0=
EXTT1=
EXTT2=
EXTT3=
EXTT4=
EXTT5=
EXTT6=
EXTT7=
EXTT8=
EXTT9=
EXTT10=
EXTT11=
EXTT12=
EXTT13=
EXTT14=
PLAYORDER=
